<?xml version="1.0" encoding="UTF-8" standalone="no"?>
<!-- Created with Inkscape (http://www.inkscape.org/) -->

<svg
   xmlns:dc="http://purl.org/dc/elements/1.1/"
   xmlns:cc="http://creativecommons.org/ns#"
   xmlns:rdf="http://www.w3.org/1999/02/22-rdf-syntax-ns#"
   xmlns:svg="http://www.w3.org/2000/svg"
   xmlns="http://www.w3.org/2000/svg"
   xmlns:sodipodi="http://sodipodi.sourceforge.net/DTD/sodipodi-0.dtd"
   xmlns:inkscape="http://www.inkscape.org/namespaces/inkscape"
   width="210mm"
   height="297mm"
   viewBox="0 0 210 297"
   version="1.1"
   id="svg8"
   inkscape:version="0.92.4 (5da689c313, 2019-01-14)"
   sodipodi:docname="overfitting.svg"
   inkscape:export-filename="C:\Users\marth\OneDrive\Dokumenter\GitHub\FYS-STK4155-project-1\Plots\overfitting.png"
   inkscape:export-xdpi="96"
   inkscape:export-ydpi="96">
  <defs
     id="defs2">
    <inkscape:path-effect
       effect="skeletal"
       id="path-effect823"
       is_visible="true"
       pattern="M 0,5 C 0,2.24 2.24,0 5,0 7.76,0 10,2.24 10,5 10,7.76 7.76,10 5,10 2.24,10 0,7.76 0,5 Z"
       copytype="single_stretched"
       prop_scale="0.26458333"
       scale_y_rel="false"
       spacing="0"
       normal_offset="0"
       tang_offset="0"
       prop_units="false"
       vertical_pattern="false"
       fuse_tolerance="0" />
    <inkscape:path-effect
       effect="skeletal"
       id="path-effect819"
       is_visible="true"
       pattern="M 0,5 C 0,2.24 2.24,0 5,0 7.76,0 10,2.24 10,5 10,7.76 7.76,10 5,10 2.24,10 0,7.76 0,5 Z"
       copytype="single_stretched"
       prop_scale="0.26458333"
       scale_y_rel="false"
       spacing="0"
       normal_offset="0"
       tang_offset="0"
       prop_units="false"
       vertical_pattern="false"
       fuse_tolerance="0" />
  </defs>
  <sodipodi:namedview
     id="base"
     pagecolor="#ffffff"
     bordercolor="#666666"
     borderopacity="1.0"
     inkscape:pageopacity="0.0"
     inkscape:pageshadow="2"
     inkscape:zoom="0.35"
     inkscape:cx="-155.71429"
     inkscape:cy="560"
     inkscape:document-units="mm"
     inkscape:current-layer="layer1"
     showgrid="false"
     inkscape:window-width="1920"
     inkscape:window-height="1000"
     inkscape:window-x="-11"
     inkscape:window-y="-11"
     inkscape:window-maximized="1" />
  <metadata
     id="metadata5">
    <rdf:RDF>
      <cc:Work
         rdf:about="">
        <dc:format>image/svg+xml</dc:format>
        <dc:type
           rdf:resource="http://purl.org/dc/dcmitype/StillImage" />
        <dc:title></dc:title>
      </cc:Work>
    </rdf:RDF>
  </metadata>
  <g
     inkscape:label="Layer 1"
     inkscape:groupmode="layer"
     id="layer1">
    <path
       style="fill:#000000;stroke:none;stroke-width:0.1;stroke-linecap:butt;stroke-linejoin:miter;stroke-miterlimit:4;stroke-dasharray:none;stroke-opacity:1"
       d="m 6.8035728,182.8512 c 0.1350501,-0.0429 2.6446307,7.40608 7.1689772,21.22566 1.869164,5.1298 4.37336,11.66527 7.450111,18.38238 2.308361,5.03688 5.201784,10.92693 8.977306,16.24557 1.386347,1.95114 2.941464,3.90681 4.771069,5.57715 1.386289,1.25607 2.95022,2.411 4.709587,2.9638 1.437672,0.4605 3.066486,0.4584 4.482447,-0.11985 1.79017,-0.70013 3.269285,-2.16243 4.572214,-3.83272 1.917029,-2.48859 3.321276,-5.38982 4.598651,-8.50787 1.785626,-4.37447 3.149918,-8.97678 4.38709,-13.87801 3.648593,-14.46224 5.723282,-29.30971 7.6169,-46.48269 3.048188,-27.68214 7.107743,-60.91405 13.819025,-93.746129 2e-6,0 6e-6,-3.1e-5 6e-6,-3.1e-5 3.233368,-15.847114 7.019185,-33.026921 14.002276,-48.950517 1.825181,-4.169272 3.949529,-8.353036 6.769908,-12.132012 1.75871,-2.372896 3.88865,-4.63866 6.57552,-6.243794 1.86845,-1.107609 4.018,-1.791637 6.2465,-1.871321 1.85956,-0.05133 3.66555,0.289201 5.35659,0.823747 0.48804,0.176288 0.8497,0.425148 1.08459,0.695618 0.31791,0.341323 0.54722,0.68722 0.71214,1.006763 0.49748,0.939661 0.79352,1.894083 1.0212,2.786645 0,0 1e-5,3.5e-5 1e-5,3.5e-5 0.34728,1.31807 0.5935,2.639588 0.80176,3.947915 0,0 0,3.6e-5 0,3.6e-5 0.27205,1.702088 0.4811,3.406752 0.66107,5.111276 0.47103,4.459159 0.75513,8.927759 0.98586,13.430338 0.29121,5.676048 0.47967,11.366042 0.6271,17.114105 0.35831,13.96771 0.47095,27.890636 0.55892,42.250496 0.0993,16.19777 0.12573,27.2313 0.22502,43.42907 -4.2e-4,-0.0643 0.0305,4.44878 0.0301,4.38447 0.11647,16.00759 0.29286,31.61445 0.70177,47.1878 0.3607,13.72508 0.85295,27.07124 1.90238,40.35038 0.41752,5.28104 0.91837,10.49132 1.63429,15.65126 0.54868,3.94193 1.18278,7.8087 2.19726,11.54788 0,0 1e-5,3e-5 1e-5,3e-5 0.37083,1.36403 0.78311,2.69019 1.31011,3.94438 0.40115,0.93917 0.82402,1.81419 1.38092,2.52262 0,0 2e-5,2e-5 2e-5,2e-5 0.40891,0.48271 0.78985,0.89536 1.18002,1.0027 0,0 2e-5,0 2e-5,0 0.14909,0.0554 0.30991,0.0836 0.45891,0.077 0.1645,-2.1e-4 0.35696,-0.0533 0.56082,-0.13253 1.26002,-0.46561 2.26759,-1.70692 3.18406,-3.0454 1.28936,-1.96851 2.18488,-4.23791 2.97752,-6.56276 1.04845,-3.09994 1.82915,-6.30244 2.50296,-9.5155 0.8263,-3.94593 1.47349,-7.92485 2.03066,-11.88412 1.35655,-9.64111 2.20667,-19.32905 2.89032,-28.73825 0.78408,-10.79721 1.33781,-21.57367 1.81042,-31.92507 0.36243,-7.93897 0.96134,-23.09456 1.32376,-31.03352 0.39415,-9.01579 0.78382,-17.52014 1.43128,-26.0903 0.25351,-3.35702 0.54212,-6.65587 0.94307,-9.94019 0,0 0,-3e-5 0,-3e-5 0.29543,-2.43066 0.63487,-4.84595 1.20557,-7.2389 0.19609,-0.82635 0.4279,-1.66549 0.74839,-2.4965 0.20658,-0.563071 0.49452,-1.178519 0.95807,-1.760239 0.16556,-0.210782 0.39193,-0.422674 0.68663,-0.610163 0.25776,-0.162754 0.57211,-0.265941 0.92791,-0.29146 0.36503,-0.0086 0.68846,0.06351 0.95505,0.194964 0,0 4e-5,2e-5 4e-5,2e-5 0.32259,0.15738 0.57933,0.346737 0.77669,0.540059 0,0 3e-5,2.4e-5 3e-5,2.4e-5 1.16987,1.127319 1.88611,2.498495 2.48524,3.744625 0,0 2e-5,2e-5 2e-5,2e-5 1.01911,2.054 1.83981,4.17246 2.58997,6.24822 2.27908,6.29859 4.07699,12.75485 5.69496,18.81455 4.93866,18.48988 8.97233,37.42685 12.02345,52.08126 8.82697,45.84244 13.82602,72.46894 13.57169,72.5386 -3.2e-4,7e-5 -3.1e-4,6e-5 -3e-4,6e-5 1e-5,0 2e-5,0 -3e-4,5e-5 -0.26253,0.028 -5.74318,-26.50661 -14.97094,-72.25178 -3.17083,-14.5811 -7.35403,-33.53613 -12.37697,-51.89417 -1.65187,-6.03527 -3.47153,-12.43421 -5.75206,-18.62776 -0.75352,-2.04396 -1.55658,-4.09157 -2.53451,-6.03148 0,0 -1e-5,-2e-5 -1e-5,-2e-5 -0.63228,-1.21658 -1.21831,-2.40015 -2.0835,-3.172253 0,0 -1e-5,-1.3e-5 -1e-5,-1.3e-5 -0.11151,-0.09495 -0.19522,-0.166584 -0.25678,-0.186732 0,0 -1e-5,-2e-6 -1e-5,-2e-6 -0.0383,-0.0094 -0.0503,-0.02018 -0.0211,-0.01177 0.0303,-0.009 0.0279,-8.66e-4 0.007,0.0061 -0.0401,0.01632 -0.0979,0.08334 -0.18165,0.175768 -0.25198,0.288474 -0.42958,0.720752 -0.62969,1.213462 -0.27065,0.70361 -0.47165,1.45695 -0.65665,2.24067 -0.53294,2.26974 -0.84734,4.60977 -1.13168,7.01857 0,0 0,3e-5 0,3e-5 -0.38061,3.23956 -0.65125,6.50743 -0.88924,9.84967 -0.60739,8.53412 -0.96068,17.01207 -1.32086,26.02906 -0.40217,10.0725 -0.76511,20.42851 -1.21577,31.04317 -0.43994,10.36369 -0.96334,21.15983 -1.72129,31.99424 -0.6598,9.43674 -1.49203,19.17937 -2.83838,28.90901 -0.55291,3.99632 -1.20109,8.03065 -2.03406,12.05167 -0.67635,3.2697 -1.47667,6.56942 -2.56281,9.80927 -0.80394,2.41704 -1.78592,4.87653 -3.23989,7.13665 -0.97653,1.57945 -2.36513,3.14318 -4.3356,4.01434 -0.43159,0.18368 -0.91722,0.30113 -1.44066,0.32551 -0.49487,0.0164 -0.98175,-0.0639 -1.43698,-0.23364 0,0 -5e-5,-2e-5 -5e-5,-2e-5 -1.02954,-0.4215 -1.78699,-1.10927 -2.30669,-1.82776 0,0 -2e-5,-3e-5 -2e-5,-3e-5 -0.75285,-0.98579 -1.2888,-2.05115 -1.71888,-3.09234 -0.58804,-1.4023 -1.03916,-2.83442 -1.42619,-4.26144 0,0 -1e-5,-4e-5 -1e-5,-4e-5 -1.06133,-3.90565 -1.72302,-7.87844 -2.27902,-11.86265 -0.73222,-5.2305 -1.24519,-10.49116 -1.67043,-15.80086 -1.06956,-13.35 -1.57624,-26.74395 -1.9453,-40.48631 -0.41923,-15.59757 -0.60133,-31.22566 -0.71859,-47.23833 -4e-4,-0.0554 -0.0298,-4.33124 -0.0302,-4.38662 -0.0747,-11.5178 -0.13897,-31.91298 -0.21367,-43.430777 -0.0805,-14.359391 -0.18179,-28.260264 -0.52481,-42.200606 -0.14116,-5.735657 -0.32213,-11.403532 -0.60464,-17.048816 -0.2246,-4.482381 -0.49897,-8.904805 -0.95681,-13.293392 -0.175,-1.676729 -0.37557,-3.336543 -0.63569,-4.977117 0,0 -1e-5,-3.4e-5 -1e-5,-3.4e-5 -0.2017,-1.26678 -0.42836,-2.505422 -0.74329,-3.700013 0,0 -1e-5,-3.3e-5 -1e-5,-3.3e-5 -0.22711,-0.83308 -0.44767,-1.600639 -0.79573,-2.227584 -0.1177,-0.2041 -0.2114,-0.365061 -0.30566,-0.452229 -0.0688,-0.04649 -0.0787,-0.07876 -0.01,-0.03227 -1.51281,-0.466657 -3.03848,-0.772103 -4.51805,-0.71769 -1.75259,0.04638 -3.50253,0.610028 -5.04555,1.512747 -2.28608,1.32536 -4.17667,3.368544 -5.85045,5.573867 -2.662395,3.533909 -4.700686,7.551222 -6.5065,11.627334 -6.898661,15.59957 -10.681622,32.619523 -13.967962,48.425598 0,0 -5e-6,3.2e-5 -5e-6,3.2e-5 -6.780427,32.670343 -10.967407,65.866623 -14.151202,93.493763 -1.97818,17.18935 -4.160138,32.13135 -7.93146,46.6843 -1.27857,4.93641 -2.701718,9.60613 -4.558472,14.06677 -1.316523,3.17382 -2.81768,6.18904 -4.873964,8.83251 -1.381484,1.79697 -3.092646,3.40649 -5.237039,4.26927 -1.781631,0.69192 -3.739414,0.68396 -5.473047,0.10981 -2.040357,-0.68688 -3.760464,-1.95755 -5.201744,-3.31284 -1.91642,-1.78924 -3.512455,-3.83 -4.905694,-5.83973 -3.79931,-5.47542 -6.656162,-11.45205 -8.910893,-16.5448 C 17.399628,216.09986 14.98918,209.522 13.202417,204.33558 8.9179557,190.42597 6.6685206,182.8941 6.8035728,182.8512 Z"
       id="path821"
       inkscape:connector-curvature="0"
       inkscape:path-effect="#path-effect823"
       inkscape:original-d="m 6.8035714,182.85119 c 0,0 41.5773796,152.70238 59.7202366,-8.31548 C 84.666666,13.517857 105.83333,9.738095 117.92857,13.517857 130.02381,17.297619 114.90476,278.85715 136.82738,269.7857 158.75,260.71428 149.67857,88.357143 161.01786,98.940476 172.35714,109.52381 198.05952,251.64285 198.05952,251.64285"
       transform="matrix(1.0988064,0,0,1.0669215,-7.4752399,-0.76797197)" />
    <ellipse
       style="fill:#000080;fill-opacity:0;stroke:#000000;stroke-width:0.1;stroke-miterlimit:4;stroke-dasharray:none;stroke-opacity:1"
       id="path825"
       cx="121.69425"
       cy="14.966262"
       rx="0.0054445076"
       ry="0.017179601" />
    <ellipse
       style="fill:#040000;fill-opacity:1;stroke:#000000;stroke-width:0.1;stroke-miterlimit:4;stroke-dasharray:none;stroke-opacity:1"
       id="path829"
       cx="39.6875"
       cy="263.7381"
       rx="4.9136906"
       ry="5.2916665" />
    <circle
       style="fill:#040000;fill-opacity:1;stroke:#000000;stroke-width:0.1;stroke-miterlimit:4;stroke-dasharray:none;stroke-opacity:1"
       id="path841"
       cx="97.51786"
       cy="33.928574"
       r="4.5357141" />
    <circle
       style="fill:#040000;fill-opacity:1;stroke:#000000;stroke-width:0.1;stroke-miterlimit:4;stroke-dasharray:none;stroke-opacity:1"
       id="path843"
       cx="131.9137"
       cy="254.2887"
       r="4.9136906" />
    <ellipse
       style="fill:#040000;fill-opacity:1;stroke:#000000;stroke-width:0.1;stroke-miterlimit:4;stroke-dasharray:none;stroke-opacity:1"
       id="path850"
       cx="176.89285"
       cy="125.02083"
       rx="4.5357141"
       ry="4.9136906" />
    <ellipse
       style="fill:#cf0000;fill-opacity:1;stroke:#000000;stroke-width:0.1;stroke-miterlimit:4;stroke-dasharray:none;stroke-opacity:1"
       id="path852"
       cx="143.63095"
       cy="34.306545"
       rx="6.0476193"
       ry="5.6696429" />
  </g>
</svg>
